<svg xmlns="http://www.w3.org/2000/svg" width="1280" height="720" viewBox="0 0 1280 720" role="img" aria-labelledby="title desc">
<title id="title">사출 실시간 현황판</title>
<desc id="desc">상단 상태 카드 3개와 17대 설비 카드 배치. 화면 구성 예시이며 실시간 데이터가 아닙니다.</desc>
<rect width="1280" height="720" fill="#edf3f7"/>
<rect x="5" y="5" width="1270" height="60" rx="8" fill="#fff" stroke="#cbd8e2" stroke-width="1"/>
<rect x="18" y="16" width="42" height="39" rx="7" fill="#eaf4fa" stroke="none" stroke-width="1"/>
<text x="39" y="43" fill="#356fa1" font-family="Inter, Noto Sans KR, Noto Sans SC, Arial, sans-serif" font-size="25" font-weight="700" text-anchor="middle">▥</text>
<text x="73" y="28" fill="#356fa1" font-family="Inter, Noto Sans KR, Noto Sans SC, Arial, sans-serif" font-size="12" font-weight="800" text-anchor="start">INJECTION LIVE BOARD</text>
<text x="73" y="52" fill="#17324b" font-family="Inter, Noto Sans KR, Noto Sans SC, Arial, sans-serif" font-size="25" font-weight="850" text-anchor="start">사출 실시간 현황판</text>
<rect x="1044" y="21" width="84" height="28" rx="14" fill="#e9f2f8" stroke="none" stroke-width="1"/>
<text x="1086.0" y="40" fill="#356fa1" font-family="Inter, Noto Sans KR, Noto Sans SC, Arial, sans-serif" font-size="13" font-weight="800" text-anchor="middle">KOR</text>
<rect x="1140" y="21" width="119" height="28" rx="14" fill="#eaf4ee" stroke="none" stroke-width="1"/>
<text x="1199.5" y="40" fill="#347958" font-family="Inter, Noto Sans KR, Noto Sans SC, Arial, sans-serif" font-size="13" font-weight="800" text-anchor="middle">1분 자동 갱신</text>
<rect x="5" y="73" width="249" height="154" rx="7" fill="#3478a3" stroke="none" stroke-width="1"/>
<text x="20" y="100" fill="#edf5f9" font-family="Inter, Noto Sans KR, Noto Sans SC, Arial, sans-serif" font-size="17" font-weight="800" text-anchor="start">01  전체 가동 현황</text>
<text x="130" y="151" fill="#fff" font-family="Inter, Noto Sans KR, Noto Sans SC, Arial, sans-serif" font-size="36" font-weight="850" text-anchor="middle">— / 17</text>
<path d="M21 169 L238 169" fill="none" stroke="#ffffff77" stroke-width="1"/>
<text x="21" y="199" fill="#e6f0f3" font-family="Inter, Noto Sans KR, Noto Sans SC, Arial, sans-serif" font-size="13" font-weight="600" text-anchor="start">계획 · 실적 · 최근 형합</text>
<rect x="260" y="73" width="249" height="154" rx="7" fill="#347a5a" stroke="none" stroke-width="1"/>
<text x="275" y="100" fill="#edf5f9" font-family="Inter, Noto Sans KR, Noto Sans SC, Arial, sans-serif" font-size="17" font-weight="800" text-anchor="start">02  계획 생산 진도</text>
<text x="385" y="151" fill="#fff" font-family="Inter, Noto Sans KR, Noto Sans SC, Arial, sans-serif" font-size="36" font-weight="850" text-anchor="middle">—%</text>
<path d="M276 169 L493 169" fill="none" stroke="#ffffff77" stroke-width="1"/>
<text x="276" y="199" fill="#e6f0f3" font-family="Inter, Noto Sans KR, Noto Sans SC, Arial, sans-serif" font-size="13" font-weight="600" text-anchor="start">계획 · 실적 · 최근 형합</text>
<rect x="515" y="73" width="249" height="154" rx="7" fill="#a74d31" stroke="none" stroke-width="1"/>
<text x="530" y="100" fill="#edf5f9" font-family="Inter, Noto Sans KR, Noto Sans SC, Arial, sans-serif" font-size="17" font-weight="800" text-anchor="start">03  즉시 확인 필요</text>
<text x="640" y="151" fill="#fff" font-family="Inter, Noto Sans KR, Noto Sans SC, Arial, sans-serif" font-size="36" font-weight="850" text-anchor="middle">—대</text>
<path d="M531 169 L748 169" fill="none" stroke="#ffffff77" stroke-width="1"/>
<text x="531" y="199" fill="#e6f0f3" font-family="Inter, Noto Sans KR, Noto Sans SC, Arial, sans-serif" font-size="13" font-weight="600" text-anchor="start">계획 · 실적 · 최근 형합</text>
<rect x="770" y="73" width="249" height="150" rx="7" fill="#fff" stroke="#7992a5" stroke-width="2"/>
<rect x="770" y="73" width="7" height="150" rx="4" fill="#7d95a5" stroke="none" stroke-width="1"/>
<text x="786" y="103" fill="#17324b" font-family="Inter, Noto Sans KR, Noto Sans SC, Arial, sans-serif" font-size="21" font-weight="850" text-anchor="start">1호기</text>
<rect x="937" y="82" width="68" height="28" rx="14" fill="#eef3f6" stroke="none" stroke-width="1"/>
<text x="971.0" y="101" fill="#607585" font-family="Inter, Noto Sans KR, Noto Sans SC, Arial, sans-serif" font-size="13" font-weight="800" text-anchor="middle">상태</text>
<rect x="787" y="125" width="156" height="10" rx="5.0" fill="#d9e4eb" stroke="none" stroke-width="1"/>
<rect x="786" y="147" width="106" height="52" rx="3" fill="#f7fafc" stroke="#cbd8e2" stroke-width="1"/>
<text x="839" y="165" fill="#667d90" font-family="Inter, Noto Sans KR, Noto Sans SC, Arial, sans-serif" font-size="11" font-weight="700" text-anchor="middle">현재 C/T</text>
<text x="839" y="188" fill="#17324b" font-family="Inter, Noto Sans KR, Noto Sans SC, Arial, sans-serif" font-size="21" font-weight="800" text-anchor="middle">—</text>
<rect x="898" y="147" width="106" height="52" rx="3" fill="#f7fafc" stroke="#cbd8e2" stroke-width="1"/>
<text x="951" y="165" fill="#667d90" font-family="Inter, Noto Sans KR, Noto Sans SC, Arial, sans-serif" font-size="11" font-weight="700" text-anchor="middle">달성률</text>
<text x="951" y="188" fill="#17324b" font-family="Inter, Noto Sans KR, Noto Sans SC, Arial, sans-serif" font-size="21" font-weight="800" text-anchor="middle">—</text>
<rect x="786" y="210" width="216" height="6" rx="3.0" fill="#d9e4eb" stroke="none" stroke-width="1"/>
<rect x="1025" y="73" width="249" height="150" rx="7" fill="#fff" stroke="#7992a5" stroke-width="2"/>
<rect x="1025" y="73" width="7" height="150" rx="4" fill="#7d95a5" stroke="none" stroke-width="1"/>
<text x="1041" y="103" fill="#17324b" font-family="Inter, Noto Sans KR, Noto Sans SC, Arial, sans-serif" font-size="21" font-weight="850" text-anchor="start">2호기</text>
<rect x="1192" y="82" width="68" height="28" rx="14" fill="#eef3f6" stroke="none" stroke-width="1"/>
<text x="1226.0" y="101" fill="#607585" font-family="Inter, Noto Sans KR, Noto Sans SC, Arial, sans-serif" font-size="13" font-weight="800" text-anchor="middle">상태</text>
<rect x="1042" y="125" width="156" height="10" rx="5.0" fill="#d9e4eb" stroke="none" stroke-width="1"/>
<rect x="1041" y="147" width="106" height="52" rx="3" fill="#f7fafc" stroke="#cbd8e2" stroke-width="1"/>
<text x="1094" y="165" fill="#667d90" font-family="Inter, Noto Sans KR, Noto Sans SC, Arial, sans-serif" font-size="11" font-weight="700" text-anchor="middle">현재 C/T</text>
<text x="1094" y="188" fill="#17324b" font-family="Inter, Noto Sans KR, Noto Sans SC, Arial, sans-serif" font-size="21" font-weight="800" text-anchor="middle">—</text>
<rect x="1153" y="147" width="106" height="52" rx="3" fill="#f7fafc" stroke="#cbd8e2" stroke-width="1"/>
<text x="1206" y="165" fill="#667d90" font-family="Inter, Noto Sans KR, Noto Sans SC, Arial, sans-serif" font-size="11" font-weight="700" text-anchor="middle">달성률</text>
<text x="1206" y="188" fill="#17324b" font-family="Inter, Noto Sans KR, Noto Sans SC, Arial, sans-serif" font-size="21" font-weight="800" text-anchor="middle">—</text>
<rect x="1041" y="210" width="216" height="6" rx="3.0" fill="#d9e4eb" stroke="none" stroke-width="1"/>
<rect x="5" y="235" width="249" height="150" rx="7" fill="#fff" stroke="#7992a5" stroke-width="2"/>
<rect x="5" y="235" width="7" height="150" rx="4" fill="#7d95a5" stroke="none" stroke-width="1"/>
<text x="21" y="265" fill="#17324b" font-family="Inter, Noto Sans KR, Noto Sans SC, Arial, sans-serif" font-size="21" font-weight="850" text-anchor="start">3호기</text>
<rect x="172" y="244" width="68" height="28" rx="14" fill="#eef3f6" stroke="none" stroke-width="1"/>
<text x="206.0" y="263" fill="#607585" font-family="Inter, Noto Sans KR, Noto Sans SC, Arial, sans-serif" font-size="13" font-weight="800" text-anchor="middle">상태</text>
<rect x="22" y="287" width="156" height="10" rx="5.0" fill="#d9e4eb" stroke="none" stroke-width="1"/>
<rect x="21" y="309" width="106" height="52" rx="3" fill="#f7fafc" stroke="#cbd8e2" stroke-width="1"/>
<text x="74" y="327" fill="#667d90" font-family="Inter, Noto Sans KR, Noto Sans SC, Arial, sans-serif" font-size="11" font-weight="700" text-anchor="middle">현재 C/T</text>
<text x="74" y="350" fill="#17324b" font-family="Inter, Noto Sans KR, Noto Sans SC, Arial, sans-serif" font-size="21" font-weight="800" text-anchor="middle">—</text>
<rect x="133" y="309" width="106" height="52" rx="3" fill="#f7fafc" stroke="#cbd8e2" stroke-width="1"/>
<text x="186" y="327" fill="#667d90" font-family="Inter, Noto Sans KR, Noto Sans SC, Arial, sans-serif" font-size="11" font-weight="700" text-anchor="middle">달성률</text>
<text x="186" y="350" fill="#17324b" font-family="Inter, Noto Sans KR, Noto Sans SC, Arial, sans-serif" font-size="21" font-weight="800" text-anchor="middle">—</text>
<rect x="21" y="372" width="216" height="6" rx="3.0" fill="#d9e4eb" stroke="none" stroke-width="1"/>
<rect x="260" y="235" width="249" height="150" rx="7" fill="#fff" stroke="#7992a5" stroke-width="2"/>
<rect x="260" y="235" width="7" height="150" rx="4" fill="#7d95a5" stroke="none" stroke-width="1"/>
<text x="276" y="265" fill="#17324b" font-family="Inter, Noto Sans KR, Noto Sans SC, Arial, sans-serif" font-size="21" font-weight="850" text-anchor="start">4호기</text>
<rect x="427" y="244" width="68" height="28" rx="14" fill="#eef3f6" stroke="none" stroke-width="1"/>
<text x="461.0" y="263" fill="#607585" font-family="Inter, Noto Sans KR, Noto Sans SC, Arial, sans-serif" font-size="13" font-weight="800" text-anchor="middle">상태</text>
<rect x="277" y="287" width="156" height="10" rx="5.0" fill="#d9e4eb" stroke="none" stroke-width="1"/>
<rect x="276" y="309" width="106" height="52" rx="3" fill="#f7fafc" stroke="#cbd8e2" stroke-width="1"/>
<text x="329" y="327" fill="#667d90" font-family="Inter, Noto Sans KR, Noto Sans SC, Arial, sans-serif" font-size="11" font-weight="700" text-anchor="middle">현재 C/T</text>
<text x="329" y="350" fill="#17324b" font-family="Inter, Noto Sans KR, Noto Sans SC, Arial, sans-serif" font-size="21" font-weight="800" text-anchor="middle">—</text>
<rect x="388" y="309" width="106" height="52" rx="3" fill="#f7fafc" stroke="#cbd8e2" stroke-width="1"/>
<text x="441" y="327" fill="#667d90" font-family="Inter, Noto Sans KR, Noto Sans SC, Arial, sans-serif" font-size="11" font-weight="700" text-anchor="middle">달성률</text>
<text x="441" y="350" fill="#17324b" font-family="Inter, Noto Sans KR, Noto Sans SC, Arial, sans-serif" font-size="21" font-weight="800" text-anchor="middle">—</text>
<rect x="276" y="372" width="216" height="6" rx="3.0" fill="#d9e4eb" stroke="none" stroke-width="1"/>
<rect x="515" y="235" width="249" height="150" rx="7" fill="#fff" stroke="#7992a5" stroke-width="2"/>
<rect x="515" y="235" width="7" height="150" rx="4" fill="#7d95a5" stroke="none" stroke-width="1"/>
<text x="531" y="265" fill="#17324b" font-family="Inter, Noto Sans KR, Noto Sans SC, Arial, sans-serif" font-size="21" font-weight="850" text-anchor="start">5호기</text>
<rect x="682" y="244" width="68" height="28" rx="14" fill="#eef3f6" stroke="none" stroke-width="1"/>
<text x="716.0" y="263" fill="#607585" font-family="Inter, Noto Sans KR, Noto Sans SC, Arial, sans-serif" font-size="13" font-weight="800" text-anchor="middle">상태</text>
<rect x="532" y="287" width="156" height="10" rx="5.0" fill="#d9e4eb" stroke="none" stroke-width="1"/>
<rect x="531" y="309" width="106" height="52" rx="3" fill="#f7fafc" stroke="#cbd8e2" stroke-width="1"/>
<text x="584" y="327" fill="#667d90" font-family="Inter, Noto Sans KR, Noto Sans SC, Arial, sans-serif" font-size="11" font-weight="700" text-anchor="middle">현재 C/T</text>
<text x="584" y="350" fill="#17324b" font-family="Inter, Noto Sans KR, Noto Sans SC, Arial, sans-serif" font-size="21" font-weight="800" text-anchor="middle">—</text>
<rect x="643" y="309" width="106" height="52" rx="3" fill="#f7fafc" stroke="#cbd8e2" stroke-width="1"/>
<text x="696" y="327" fill="#667d90" font-family="Inter, Noto Sans KR, Noto Sans SC, Arial, sans-serif" font-size="11" font-weight="700" text-anchor="middle">달성률</text>
<text x="696" y="350" fill="#17324b" font-family="Inter, Noto Sans KR, Noto Sans SC, Arial, sans-serif" font-size="21" font-weight="800" text-anchor="middle">—</text>
<rect x="531" y="372" width="216" height="6" rx="3.0" fill="#d9e4eb" stroke="none" stroke-width="1"/>
<rect x="770" y="235" width="249" height="150" rx="7" fill="#fff" stroke="#7992a5" stroke-width="2"/>
<rect x="770" y="235" width="7" height="150" rx="4" fill="#7d95a5" stroke="none" stroke-width="1"/>
<text x="786" y="265" fill="#17324b" font-family="Inter, Noto Sans KR, Noto Sans SC, Arial, sans-serif" font-size="21" font-weight="850" text-anchor="start">6호기</text>
<rect x="937" y="244" width="68" height="28" rx="14" fill="#eef3f6" stroke="none" stroke-width="1"/>
<text x="971.0" y="263" fill="#607585" font-family="Inter, Noto Sans KR, Noto Sans SC, Arial, sans-serif" font-size="13" font-weight="800" text-anchor="middle">상태</text>
<rect x="787" y="287" width="156" height="10" rx="5.0" fill="#d9e4eb" stroke="none" stroke-width="1"/>
<rect x="786" y="309" width="106" height="52" rx="3" fill="#f7fafc" stroke="#cbd8e2" stroke-width="1"/>
<text x="839" y="327" fill="#667d90" font-family="Inter, Noto Sans KR, Noto Sans SC, Arial, sans-serif" font-size="11" font-weight="700" text-anchor="middle">현재 C/T</text>
<text x="839" y="350" fill="#17324b" font-family="Inter, Noto Sans KR, Noto Sans SC, Arial, sans-serif" font-size="21" font-weight="800" text-anchor="middle">—</text>
<rect x="898" y="309" width="106" height="52" rx="3" fill="#f7fafc" stroke="#cbd8e2" stroke-width="1"/>
<text x="951" y="327" fill="#667d90" font-family="Inter, Noto Sans KR, Noto Sans SC, Arial, sans-serif" font-size="11" font-weight="700" text-anchor="middle">달성률</text>
<text x="951" y="350" fill="#17324b" font-family="Inter, Noto Sans KR, Noto Sans SC, Arial, sans-serif" font-size="21" font-weight="800" text-anchor="middle">—</text>
<rect x="786" y="372" width="216" height="6" rx="3.0" fill="#d9e4eb" stroke="none" stroke-width="1"/>
<rect x="1025" y="235" width="249" height="150" rx="7" fill="#fff" stroke="#7992a5" stroke-width="2"/>
<rect x="1025" y="235" width="7" height="150" rx="4" fill="#7d95a5" stroke="none" stroke-width="1"/>
<text x="1041" y="265" fill="#17324b" font-family="Inter, Noto Sans KR, Noto Sans SC, Arial, sans-serif" font-size="21" font-weight="850" text-anchor="start">7호기</text>
<rect x="1192" y="244" width="68" height="28" rx="14" fill="#eef3f6" stroke="none" stroke-width="1"/>
<text x="1226.0" y="263" fill="#607585" font-family="Inter, Noto Sans KR, Noto Sans SC, Arial, sans-serif" font-size="13" font-weight="800" text-anchor="middle">상태</text>
<rect x="1042" y="287" width="156" height="10" rx="5.0" fill="#d9e4eb" stroke="none" stroke-width="1"/>
<rect x="1041" y="309" width="106" height="52" rx="3" fill="#f7fafc" stroke="#cbd8e2" stroke-width="1"/>
<text x="1094" y="327" fill="#667d90" font-family="Inter, Noto Sans KR, Noto Sans SC, Arial, sans-serif" font-size="11" font-weight="700" text-anchor="middle">현재 C/T</text>
<text x="1094" y="350" fill="#17324b" font-family="Inter, Noto Sans KR, Noto Sans SC, Arial, sans-serif" font-size="21" font-weight="800" text-anchor="middle">—</text>
<rect x="1153" y="309" width="106" height="52" rx="3" fill="#f7fafc" stroke="#cbd8e2" stroke-width="1"/>
<text x="1206" y="327" fill="#667d90" font-family="Inter, Noto Sans KR, Noto Sans SC, Arial, sans-serif" font-size="11" font-weight="700" text-anchor="middle">달성률</text>
<text x="1206" y="350" fill="#17324b" font-family="Inter, Noto Sans KR, Noto Sans SC, Arial, sans-serif" font-size="21" font-weight="800" text-anchor="middle">—</text>
<rect x="1041" y="372" width="216" height="6" rx="3.0" fill="#d9e4eb" stroke="none" stroke-width="1"/>
<rect x="5" y="397" width="249" height="150" rx="7" fill="#fff" stroke="#7992a5" stroke-width="2"/>
<rect x="5" y="397" width="7" height="150" rx="4" fill="#7d95a5" stroke="none" stroke-width="1"/>
<text x="21" y="427" fill="#17324b" font-family="Inter, Noto Sans KR, Noto Sans SC, Arial, sans-serif" font-size="21" font-weight="850" text-anchor="start">8호기</text>
<rect x="172" y="406" width="68" height="28" rx="14" fill="#eef3f6" stroke="none" stroke-width="1"/>
<text x="206.0" y="425" fill="#607585" font-family="Inter, Noto Sans KR, Noto Sans SC, Arial, sans-serif" font-size="13" font-weight="800" text-anchor="middle">상태</text>
<rect x="22" y="449" width="156" height="10" rx="5.0" fill="#d9e4eb" stroke="none" stroke-width="1"/>
<rect x="21" y="471" width="106" height="52" rx="3" fill="#f7fafc" stroke="#cbd8e2" stroke-width="1"/>
<text x="74" y="489" fill="#667d90" font-family="Inter, Noto Sans KR, Noto Sans SC, Arial, sans-serif" font-size="11" font-weight="700" text-anchor="middle">현재 C/T</text>
<text x="74" y="512" fill="#17324b" font-family="Inter, Noto Sans KR, Noto Sans SC, Arial, sans-serif" font-size="21" font-weight="800" text-anchor="middle">—</text>
<rect x="133" y="471" width="106" height="52" rx="3" fill="#f7fafc" stroke="#cbd8e2" stroke-width="1"/>
<text x="186" y="489" fill="#667d90" font-family="Inter, Noto Sans KR, Noto Sans SC, Arial, sans-serif" font-size="11" font-weight="700" text-anchor="middle">달성률</text>
<text x="186" y="512" fill="#17324b" font-family="Inter, Noto Sans KR, Noto Sans SC, Arial, sans-serif" font-size="21" font-weight="800" text-anchor="middle">—</text>
<rect x="21" y="534" width="216" height="6" rx="3.0" fill="#d9e4eb" stroke="none" stroke-width="1"/>
<rect x="260" y="397" width="249" height="150" rx="7" fill="#fff" stroke="#7992a5" stroke-width="2"/>
<rect x="260" y="397" width="7" height="150" rx="4" fill="#7d95a5" stroke="none" stroke-width="1"/>
<text x="276" y="427" fill="#17324b" font-family="Inter, Noto Sans KR, Noto Sans SC, Arial, sans-serif" font-size="21" font-weight="850" text-anchor="start">9호기</text>
<rect x="427" y="406" width="68" height="28" rx="14" fill="#eef3f6" stroke="none" stroke-width="1"/>
<text x="461.0" y="425" fill="#607585" font-family="Inter, Noto Sans KR, Noto Sans SC, Arial, sans-serif" font-size="13" font-weight="800" text-anchor="middle">상태</text>
<rect x="277" y="449" width="156" height="10" rx="5.0" fill="#d9e4eb" stroke="none" stroke-width="1"/>
<rect x="276" y="471" width="106" height="52" rx="3" fill="#f7fafc" stroke="#cbd8e2" stroke-width="1"/>
<text x="329" y="489" fill="#667d90" font-family="Inter, Noto Sans KR, Noto Sans SC, Arial, sans-serif" font-size="11" font-weight="700" text-anchor="middle">현재 C/T</text>
<text x="329" y="512" fill="#17324b" font-family="Inter, Noto Sans KR, Noto Sans SC, Arial, sans-serif" font-size="21" font-weight="800" text-anchor="middle">—</text>
<rect x="388" y="471" width="106" height="52" rx="3" fill="#f7fafc" stroke="#cbd8e2" stroke-width="1"/>
<text x="441" y="489" fill="#667d90" font-family="Inter, Noto Sans KR, Noto Sans SC, Arial, sans-serif" font-size="11" font-weight="700" text-anchor="middle">달성률</text>
<text x="441" y="512" fill="#17324b" font-family="Inter, Noto Sans KR, Noto Sans SC, Arial, sans-serif" font-size="21" font-weight="800" text-anchor="middle">—</text>
<rect x="276" y="534" width="216" height="6" rx="3.0" fill="#d9e4eb" stroke="none" stroke-width="1"/>
<rect x="515" y="397" width="249" height="150" rx="7" fill="#fff" stroke="#7992a5" stroke-width="2"/>
<rect x="515" y="397" width="7" height="150" rx="4" fill="#7d95a5" stroke="none" stroke-width="1"/>
<text x="531" y="427" fill="#17324b" font-family="Inter, Noto Sans KR, Noto Sans SC, Arial, sans-serif" font-size="21" font-weight="850" text-anchor="start">10호기</text>
<rect x="682" y="406" width="68" height="28" rx="14" fill="#eef3f6" stroke="none" stroke-width="1"/>
<text x="716.0" y="425" fill="#607585" font-family="Inter, Noto Sans KR, Noto Sans SC, Arial, sans-serif" font-size="13" font-weight="800" text-anchor="middle">상태</text>
<rect x="532" y="449" width="156" height="10" rx="5.0" fill="#d9e4eb" stroke="none" stroke-width="1"/>
<rect x="531" y="471" width="106" height="52" rx="3" fill="#f7fafc" stroke="#cbd8e2" stroke-width="1"/>
<text x="584" y="489" fill="#667d90" font-family="Inter, Noto Sans KR, Noto Sans SC, Arial, sans-serif" font-size="11" font-weight="700" text-anchor="middle">현재 C/T</text>
<text x="584" y="512" fill="#17324b" font-family="Inter, Noto Sans KR, Noto Sans SC, Arial, sans-serif" font-size="21" font-weight="800" text-anchor="middle">—</text>
<rect x="643" y="471" width="106" height="52" rx="3" fill="#f7fafc" stroke="#cbd8e2" stroke-width="1"/>
<text x="696" y="489" fill="#667d90" font-family="Inter, Noto Sans KR, Noto Sans SC, Arial, sans-serif" font-size="11" font-weight="700" text-anchor="middle">달성률</text>
<text x="696" y="512" fill="#17324b" font-family="Inter, Noto Sans KR, Noto Sans SC, Arial, sans-serif" font-size="21" font-weight="800" text-anchor="middle">—</text>
<rect x="531" y="534" width="216" height="6" rx="3.0" fill="#d9e4eb" stroke="none" stroke-width="1"/>
<rect x="770" y="397" width="249" height="150" rx="7" fill="#fff" stroke="#7992a5" stroke-width="2"/>
<rect x="770" y="397" width="7" height="150" rx="4" fill="#7d95a5" stroke="none" stroke-width="1"/>
<text x="786" y="427" fill="#17324b" font-family="Inter, Noto Sans KR, Noto Sans SC, Arial, sans-serif" font-size="21" font-weight="850" text-anchor="start">11호기</text>
<rect x="937" y="406" width="68" height="28" rx="14" fill="#eef3f6" stroke="none" stroke-width="1"/>
<text x="971.0" y="425" fill="#607585" font-family="Inter, Noto Sans KR, Noto Sans SC, Arial, sans-serif" font-size="13" font-weight="800" text-anchor="middle">상태</text>
<rect x="787" y="449" width="156" height="10" rx="5.0" fill="#d9e4eb" stroke="none" stroke-width="1"/>
<rect x="786" y="471" width="106" height="52" rx="3" fill="#f7fafc" stroke="#cbd8e2" stroke-width="1"/>
<text x="839" y="489" fill="#667d90" font-family="Inter, Noto Sans KR, Noto Sans SC, Arial, sans-serif" font-size="11" font-weight="700" text-anchor="middle">현재 C/T</text>
<text x="839" y="512" fill="#17324b" font-family="Inter, Noto Sans KR, Noto Sans SC, Arial, sans-serif" font-size="21" font-weight="800" text-anchor="middle">—</text>
<rect x="898" y="471" width="106" height="52" rx="3" fill="#f7fafc" stroke="#cbd8e2" stroke-width="1"/>
<text x="951" y="489" fill="#667d90" font-family="Inter, Noto Sans KR, Noto Sans SC, Arial, sans-serif" font-size="11" font-weight="700" text-anchor="middle">달성률</text>
<text x="951" y="512" fill="#17324b" font-family="Inter, Noto Sans KR, Noto Sans SC, Arial, sans-serif" font-size="21" font-weight="800" text-anchor="middle">—</text>
<rect x="786" y="534" width="216" height="6" rx="3.0" fill="#d9e4eb" stroke="none" stroke-width="1"/>
<rect x="1025" y="397" width="249" height="150" rx="7" fill="#fff" stroke="#7992a5" stroke-width="2"/>
<rect x="1025" y="397" width="7" height="150" rx="4" fill="#7d95a5" stroke="none" stroke-width="1"/>
<text x="1041" y="427" fill="#17324b" font-family="Inter, Noto Sans KR, Noto Sans SC, Arial, sans-serif" font-size="21" font-weight="850" text-anchor="start">12호기</text>
<rect x="1192" y="406" width="68" height="28" rx="14" fill="#eef3f6" stroke="none" stroke-width="1"/>
<text x="1226.0" y="425" fill="#607585" font-family="Inter, Noto Sans KR, Noto Sans SC, Arial, sans-serif" font-size="13" font-weight="800" text-anchor="middle">상태</text>
<rect x="1042" y="449" width="156" height="10" rx="5.0" fill="#d9e4eb" stroke="none" stroke-width="1"/>
<rect x="1041" y="471" width="106" height="52" rx="3" fill="#f7fafc" stroke="#cbd8e2" stroke-width="1"/>
<text x="1094" y="489" fill="#667d90" font-family="Inter, Noto Sans KR, Noto Sans SC, Arial, sans-serif" font-size="11" font-weight="700" text-anchor="middle">현재 C/T</text>
<text x="1094" y="512" fill="#17324b" font-family="Inter, Noto Sans KR, Noto Sans SC, Arial, sans-serif" font-size="21" font-weight="800" text-anchor="middle">—</text>
<rect x="1153" y="471" width="106" height="52" rx="3" fill="#f7fafc" stroke="#cbd8e2" stroke-width="1"/>
<text x="1206" y="489" fill="#667d90" font-family="Inter, Noto Sans KR, Noto Sans SC, Arial, sans-serif" font-size="11" font-weight="700" text-anchor="middle">달성률</text>
<text x="1206" y="512" fill="#17324b" font-family="Inter, Noto Sans KR, Noto Sans SC, Arial, sans-serif" font-size="21" font-weight="800" text-anchor="middle">—</text>
<rect x="1041" y="534" width="216" height="6" rx="3.0" fill="#d9e4eb" stroke="none" stroke-width="1"/>
<rect x="5" y="559" width="249" height="150" rx="7" fill="#fff" stroke="#7992a5" stroke-width="2"/>
<rect x="5" y="559" width="7" height="150" rx="4" fill="#7d95a5" stroke="none" stroke-width="1"/>
<text x="21" y="589" fill="#17324b" font-family="Inter, Noto Sans KR, Noto Sans SC, Arial, sans-serif" font-size="21" font-weight="850" text-anchor="start">13호기</text>
<rect x="172" y="568" width="68" height="28" rx="14" fill="#eef3f6" stroke="none" stroke-width="1"/>
<text x="206.0" y="587" fill="#607585" font-family="Inter, Noto Sans KR, Noto Sans SC, Arial, sans-serif" font-size="13" font-weight="800" text-anchor="middle">상태</text>
<rect x="22" y="611" width="156" height="10" rx="5.0" fill="#d9e4eb" stroke="none" stroke-width="1"/>
<rect x="21" y="633" width="106" height="52" rx="3" fill="#f7fafc" stroke="#cbd8e2" stroke-width="1"/>
<text x="74" y="651" fill="#667d90" font-family="Inter, Noto Sans KR, Noto Sans SC, Arial, sans-serif" font-size="11" font-weight="700" text-anchor="middle">현재 C/T</text>
<text x="74" y="674" fill="#17324b" font-family="Inter, Noto Sans KR, Noto Sans SC, Arial, sans-serif" font-size="21" font-weight="800" text-anchor="middle">—</text>
<rect x="133" y="633" width="106" height="52" rx="3" fill="#f7fafc" stroke="#cbd8e2" stroke-width="1"/>
<text x="186" y="651" fill="#667d90" font-family="Inter, Noto Sans KR, Noto Sans SC, Arial, sans-serif" font-size="11" font-weight="700" text-anchor="middle">달성률</text>
<text x="186" y="674" fill="#17324b" font-family="Inter, Noto Sans KR, Noto Sans SC, Arial, sans-serif" font-size="21" font-weight="800" text-anchor="middle">—</text>
<rect x="21" y="696" width="216" height="6" rx="3.0" fill="#d9e4eb" stroke="none" stroke-width="1"/>
<rect x="260" y="559" width="249" height="150" rx="7" fill="#fff" stroke="#7992a5" stroke-width="2"/>
<rect x="260" y="559" width="7" height="150" rx="4" fill="#7d95a5" stroke="none" stroke-width="1"/>
<text x="276" y="589" fill="#17324b" font-family="Inter, Noto Sans KR, Noto Sans SC, Arial, sans-serif" font-size="21" font-weight="850" text-anchor="start">14호기</text>
<rect x="427" y="568" width="68" height="28" rx="14" fill="#eef3f6" stroke="none" stroke-width="1"/>
<text x="461.0" y="587" fill="#607585" font-family="Inter, Noto Sans KR, Noto Sans SC, Arial, sans-serif" font-size="13" font-weight="800" text-anchor="middle">상태</text>
<rect x="277" y="611" width="156" height="10" rx="5.0" fill="#d9e4eb" stroke="none" stroke-width="1"/>
<rect x="276" y="633" width="106" height="52" rx="3" fill="#f7fafc" stroke="#cbd8e2" stroke-width="1"/>
<text x="329" y="651" fill="#667d90" font-family="Inter, Noto Sans KR, Noto Sans SC, Arial, sans-serif" font-size="11" font-weight="700" text-anchor="middle">현재 C/T</text>
<text x="329" y="674" fill="#17324b" font-family="Inter, Noto Sans KR, Noto Sans SC, Arial, sans-serif" font-size="21" font-weight="800" text-anchor="middle">—</text>
<rect x="388" y="633" width="106" height="52" rx="3" fill="#f7fafc" stroke="#cbd8e2" stroke-width="1"/>
<text x="441" y="651" fill="#667d90" font-family="Inter, Noto Sans KR, Noto Sans SC, Arial, sans-serif" font-size="11" font-weight="700" text-anchor="middle">달성률</text>
<text x="441" y="674" fill="#17324b" font-family="Inter, Noto Sans KR, Noto Sans SC, Arial, sans-serif" font-size="21" font-weight="800" text-anchor="middle">—</text>
<rect x="276" y="696" width="216" height="6" rx="3.0" fill="#d9e4eb" stroke="none" stroke-width="1"/>
<rect x="515" y="559" width="249" height="150" rx="7" fill="#fff" stroke="#7992a5" stroke-width="2"/>
<rect x="515" y="559" width="7" height="150" rx="4" fill="#7d95a5" stroke="none" stroke-width="1"/>
<text x="531" y="589" fill="#17324b" font-family="Inter, Noto Sans KR, Noto Sans SC, Arial, sans-serif" font-size="21" font-weight="850" text-anchor="start">15호기</text>
<rect x="682" y="568" width="68" height="28" rx="14" fill="#eef3f6" stroke="none" stroke-width="1"/>
<text x="716.0" y="587" fill="#607585" font-family="Inter, Noto Sans KR, Noto Sans SC, Arial, sans-serif" font-size="13" font-weight="800" text-anchor="middle">상태</text>
<rect x="532" y="611" width="156" height="10" rx="5.0" fill="#d9e4eb" stroke="none" stroke-width="1"/>
<rect x="531" y="633" width="106" height="52" rx="3" fill="#f7fafc" stroke="#cbd8e2" stroke-width="1"/>
<text x="584" y="651" fill="#667d90" font-family="Inter, Noto Sans KR, Noto Sans SC, Arial, sans-serif" font-size="11" font-weight="700" text-anchor="middle">현재 C/T</text>
<text x="584" y="674" fill="#17324b" font-family="Inter, Noto Sans KR, Noto Sans SC, Arial, sans-serif" font-size="21" font-weight="800" text-anchor="middle">—</text>
<rect x="643" y="633" width="106" height="52" rx="3" fill="#f7fafc" stroke="#cbd8e2" stroke-width="1"/>
<text x="696" y="651" fill="#667d90" font-family="Inter, Noto Sans KR, Noto Sans SC, Arial, sans-serif" font-size="11" font-weight="700" text-anchor="middle">달성률</text>
<text x="696" y="674" fill="#17324b" font-family="Inter, Noto Sans KR, Noto Sans SC, Arial, sans-serif" font-size="21" font-weight="800" text-anchor="middle">—</text>
<rect x="531" y="696" width="216" height="6" rx="3.0" fill="#d9e4eb" stroke="none" stroke-width="1"/>
<rect x="770" y="559" width="249" height="150" rx="7" fill="#fff" stroke="#7992a5" stroke-width="2"/>
<rect x="770" y="559" width="7" height="150" rx="4" fill="#7d95a5" stroke="none" stroke-width="1"/>
<text x="786" y="589" fill="#17324b" font-family="Inter, Noto Sans KR, Noto Sans SC, Arial, sans-serif" font-size="21" font-weight="850" text-anchor="start">16호기</text>
<rect x="937" y="568" width="68" height="28" rx="14" fill="#eef3f6" stroke="none" stroke-width="1"/>
<text x="971.0" y="587" fill="#607585" font-family="Inter, Noto Sans KR, Noto Sans SC, Arial, sans-serif" font-size="13" font-weight="800" text-anchor="middle">상태</text>
<rect x="787" y="611" width="156" height="10" rx="5.0" fill="#d9e4eb" stroke="none" stroke-width="1"/>
<rect x="786" y="633" width="106" height="52" rx="3" fill="#f7fafc" stroke="#cbd8e2" stroke-width="1"/>
<text x="839" y="651" fill="#667d90" font-family="Inter, Noto Sans KR, Noto Sans SC, Arial, sans-serif" font-size="11" font-weight="700" text-anchor="middle">현재 C/T</text>
<text x="839" y="674" fill="#17324b" font-family="Inter, Noto Sans KR, Noto Sans SC, Arial, sans-serif" font-size="21" font-weight="800" text-anchor="middle">—</text>
<rect x="898" y="633" width="106" height="52" rx="3" fill="#f7fafc" stroke="#cbd8e2" stroke-width="1"/>
<text x="951" y="651" fill="#667d90" font-family="Inter, Noto Sans KR, Noto Sans SC, Arial, sans-serif" font-size="11" font-weight="700" text-anchor="middle">달성률</text>
<text x="951" y="674" fill="#17324b" font-family="Inter, Noto Sans KR, Noto Sans SC, Arial, sans-serif" font-size="21" font-weight="800" text-anchor="middle">—</text>
<rect x="786" y="696" width="216" height="6" rx="3.0" fill="#d9e4eb" stroke="none" stroke-width="1"/>
<rect x="1025" y="559" width="249" height="150" rx="7" fill="#fff" stroke="#7992a5" stroke-width="2"/>
<rect x="1025" y="559" width="7" height="150" rx="4" fill="#7d95a5" stroke="none" stroke-width="1"/>
<text x="1041" y="589" fill="#17324b" font-family="Inter, Noto Sans KR, Noto Sans SC, Arial, sans-serif" font-size="21" font-weight="850" text-anchor="start">17호기</text>
<rect x="1192" y="568" width="68" height="28" rx="14" fill="#eef3f6" stroke="none" stroke-width="1"/>
<text x="1226.0" y="587" fill="#607585" font-family="Inter, Noto Sans KR, Noto Sans SC, Arial, sans-serif" font-size="13" font-weight="800" text-anchor="middle">상태</text>
<rect x="1042" y="611" width="156" height="10" rx="5.0" fill="#d9e4eb" stroke="none" stroke-width="1"/>
<rect x="1041" y="633" width="106" height="52" rx="3" fill="#f7fafc" stroke="#cbd8e2" stroke-width="1"/>
<text x="1094" y="651" fill="#667d90" font-family="Inter, Noto Sans KR, Noto Sans SC, Arial, sans-serif" font-size="11" font-weight="700" text-anchor="middle">현재 C/T</text>
<text x="1094" y="674" fill="#17324b" font-family="Inter, Noto Sans KR, Noto Sans SC, Arial, sans-serif" font-size="21" font-weight="800" text-anchor="middle">—</text>
<rect x="1153" y="633" width="106" height="52" rx="3" fill="#f7fafc" stroke="#cbd8e2" stroke-width="1"/>
<text x="1206" y="651" fill="#667d90" font-family="Inter, Noto Sans KR, Noto Sans SC, Arial, sans-serif" font-size="11" font-weight="700" text-anchor="middle">달성률</text>
<text x="1206" y="674" fill="#17324b" font-family="Inter, Noto Sans KR, Noto Sans SC, Arial, sans-serif" font-size="21" font-weight="800" text-anchor="middle">—</text>
<rect x="1041" y="696" width="216" height="6" rx="3.0" fill="#d9e4eb" stroke="none" stroke-width="1"/>
</svg>
